# xmcd CD database file
#
# Track frame offsets:
#	150
#	26209
#	63683
#	100229
#	123949
#	156684
#	193365
#
# Disc length: 2914 seconds
#
# Revision: 0
# Processed by: cddbd v1.5.2PL0 Copyright (c) Steve Scherf et al.
# Submitted via: CDex 1.51
#
DISCID=6b0b6007
DTITLE=The Frank Dibussolo Quartet - Smokey Joe's Cafe
DYEAR=1997
DGENRE=Jazz
TTITLE0=Spanish Harlem
TTITLE1=Ruby Baby
TTITLE2=Loving You
TTITLE3=On Broadway
TTITLE4=Love Potion #9
TTITLE5=Kansas City
TTITLE6=Stand By Me
EXTD=YEAR: 1997
EXTT0=
EXTT1=
EXTT2=
EXTT3=
EXTT4=
EXTT5=
EXTT6=
PLAYORDER=
